<svg width="90" height="96" viewBox="0 0 90 96" fill="none" xmlns="http://www.w3.org/2000/svg" xmlns:xlink="http://www.w3.org/1999/xlink">
<path d="M1.405,29.913C-0.333,33.444 -0.333,37.461 -0.333,45.494L-0.333,70.583C-0.333,81.74 -0.333,87.318 3.377,90.784C7.087,94.25 13.058,94.25 25,94.25L26.167,94.25L26.167,64.667C26.167,60.168 30.028,56.75 34.5,56.75L53.5,56.75C57.972,56.75 61.833,60.168 61.833,64.667L61.833,94.25L63,94.25C74.942,94.25 80.913,94.25 84.623,90.784C88.333,87.318 88.333,81.74 88.333,70.583L88.333,45.494C88.333,37.461 88.333,33.444 86.595,29.913C84.857,26.382 81.592,23.768 75.063,18.54L68.73,13.469C56.929,4.019 51.028,-0.706 44,-0.706C36.971,-0.706 31.071,4.019 19.27,13.469L12.937,18.54C6.408,23.768 3.143,26.382 1.405,29.913ZM57.833,94.25L57.833,64.667C57.833,62.63 56.024,60.75 53.5,60.75L34.5,60.75C31.976,60.75 30.167,62.63 30.167,64.667L30.167,94.25L57.833,94.25Z" clip-rule="evenodd" fill-rule="evenodd" fill="#EBD6B7"/>
</svg>
