<svg width="80" height="78" viewBox="0 0 80 78" fill="none" xmlns="http://www.w3.org/2000/svg" xmlns:xlink="http://www.w3.org/1999/xlink">
<path d="M1,15C1,7.458 1,3.686 3.343,1.343C5.686,-1 9.458,-1 17,-1L63,-1C70.542,-1 74.314,-1 76.657,1.343C79,3.686 79,7.458 79,15L79,61C79,68.542 79,72.314 76.657,74.657C74.314,77 70.542,77 63,77L17,77C9.458,77 5.686,77 3.343,74.657C1,72.314 1,68.542 1,61L1,15ZM66,18.5C66,22.09 63.09,25 59.5,25C55.91,25 53,22.09 53,18.5C53,14.91 55.91,12 59.5,12C63.09,12 66,14.91 66,18.5ZM53.333,42.333C53.333,49.697 47.364,55.667 40,55.667C32.636,55.667 26.667,49.697 26.667,42.333C26.667,34.97 32.636,29 40,29C47.364,29 53.333,34.97 53.333,42.333ZM57.333,42.333C57.333,51.906 49.573,59.667 40,59.667C30.427,59.667 22.667,51.906 22.667,42.333C22.667,32.76 30.427,25 40,25C49.573,25 57.333,32.76 57.333,42.333Z" clip-rule="evenodd" fill-rule="evenodd" fill="#EBD6B7"/>
</svg>
